Coordinates
version=1
nRows=12
nColumns=34
inDegrees=yes

Units are S.I. units (second, meters, Newtons, ...)
If the header above contains a line with 'inDegrees', this indicates whether rotational values are in degrees (yes) or radians (no).

endheader
time	pelvis_tilt	pelvis_list	pelvis_rotation	pelvis_tx	pelvis_ty	pelvis_tz	hip_flexion_r	hip_adduction_r	hip_rotation_r	knee_angle_r	ankle_angle_r	subtalar_angle_r	mtp_angle_r	hip_flexion_l	hip_adduction_l	hip_rotation_l	knee_angle_l	ankle_angle_l	subtalar_angle_l	mtp_angle_l	lumbar_extension	lumbar_bending	lumbar_rotation	arm_flex_r	arm_add_r	arm_rot_r	elbow_flex_r	pro_sup_r	arm_flex_l	arm_add_l	arm_rot_l	elbow_flex_l	pro_sup_l
      0.00000000	     -5.01488907	     -4.84416085	    -66.44273860	      0.14594914	      1.01025742	     -0.11663773	     -5.75173870	     -2.34892796	      8.30299255	     13.83277114	     13.28388556	     -0.06195414	      0.00000000	     -6.98347026	     -7.01555467	      0.33516892	      8.35282164	     11.17032016	     -4.71772535	      0.00000000	    -13.24877566	      6.90760597	      1.74202917	      5.78533829	     -2.29921340	    -10.68138324	     24.33089996	    114.26193023	      4.26956393	     -4.92217620	     -3.37405863	     19.66564219	    101.76352338
      0.01666670	     -5.01784173	     -4.84286587	    -66.53114805	      0.14581327	      1.01033818	     -0.11665869	     -5.72970597	     -2.34891440	      8.28776287	     13.80922729	     13.28657413	     -0.05636087	      0.00000000	     -7.00782410	     -7.03370701	      0.31933893	      8.34775423	     11.18049335	     -4.72094606	      0.00000000	    -13.23006337	      6.90461266	      1.64629424	      5.77179231	     -2.20186236	    -10.67181436	     24.33204803	    114.26159982	      4.38541351	     -4.81383252	     -3.35411126	     19.71730387	    101.77291988
      0.03333330	     -5.01923801	     -4.83044151	    -66.44212392	      0.14577361	      1.01034279	     -0.11678678	     -5.74119208	     -2.35823259	      8.28121354	     13.78203308	     13.27826310	     -0.04303362	      0.00000000	     -6.98385746	     -7.03864705	      0.30247796	      8.30496247	     11.17392304	     -4.71449996	      0.00000000	    -13.22754478	      6.90717780	      1.72808265	      5.84138222	     -2.23036818	    -10.67551200	     24.35371042	    114.25998152	      4.31716322	     -4.85249245	     -3.36315685	     19.68120689	    101.77507870
      0.05000000	     -5.16079444	     -4.68941554	    -66.44331492	      0.14644207	      1.01015913	     -0.11522911	     -6.16299783	     -2.35294256	      8.02485352	     12.72557192	     12.98683555	      0.43661622	      0.00000000	     -7.29106732	     -7.13805219	     -0.00236469	      7.52068753	     10.89798689	     -4.32835048	      0.00000000	    -12.67609457	      7.03096201	      1.66144433	      5.63662080	     -2.25314057	    -10.62488626	     23.98985571	    114.22816644	      4.23407621	     -4.66838554	     -3.42113549	     19.23083623	    101.88850643
      0.06666670	     -5.16131527	     -4.66732169	    -66.44253822	      0.14624630	      1.01002591	     -0.11489299	     -6.17008072	     -2.35395342	      8.02228870	     12.72009089	     12.98745036	      0.43730370	      0.00000000	     -7.30046629	     -7.14402212	     -0.00313934	      7.51890330	     10.89856186	     -4.32692150	      0.00000000	    -12.67851954	      7.03162920	      1.66217207	      5.64243532	     -2.25605408	    -10.62463638	     23.99032896	    114.22805543	      4.23809889	     -4.66611605	     -3.42082587	     19.23149972	    101.88926295
      0.08333330	     -5.12986017	     -4.55783939	    -66.39989552	      0.14701209	      1.01011605	     -0.11292652	     -6.87647207	     -2.48193556	      7.88602522	     11.37953251	     12.83875944	      0.79180665	      0.00000000	     -7.83828838	     -7.07720894	     -0.11797498	      6.51587689	     10.75396754	     -3.84077861	      0.00000000	    -12.24305153	      6.94193402	      1.83387918	      5.40009435	     -2.24259551	    -10.45181841	     23.44087989	    114.22727420	      4.17194144	     -4.52397188	     -3.36161646	     19.09056631	    102.04313520
      0.10000000	     -5.13240636	     -4.54568373	    -66.40669925	      0.14643690	      1.01007263	     -0.11266785	     -6.90208921	     -2.45745422	      7.87703412	     11.34462103	     12.83795745	      0.79397358	      0.00000000	     -7.87147517	     -7.09627725	     -0.14109338	      6.47373212	     10.75641975	     -3.84028126	      0.00000000	    -12.22514310	      6.88427554	      1.79695140	      5.44277637	     -2.26226508	    -10.44468613	     23.45381335	    114.22778991	      4.23785727	     -4.51625489	     -3.35406711	     19.11947221	    102.05101387
      0.11666670	     -4.84325592	     -4.77343365	    -66.20679631	      0.14714472	      1.01040799	     -0.11086478	     -7.96146898	     -2.64084939	      7.71459305	     10.21773370	     12.64925326	      0.79664788	      0.00000000	     -8.90349513	     -6.94464454	     -0.35462730	      5.25160590	     10.25420003	     -3.17414552	      0.00000000	    -12.32673282	      6.69271058	      1.58695783	      5.43846327	     -2.12035279	     -9.92661169	     23.00359131	    114.28699242	      4.07647477	     -4.61383630	     -3.00839581	     19.32502004	    102.39343388
      0.13333330	     -4.83746393	     -4.77030865	    -66.19499888	      0.14683610	      1.01029141	     -0.11044061	     -7.98680396	     -2.62518938	      7.73493135	     10.22879747	     12.64380305	      0.80735822	      0.00000000	     -8.94408817	     -6.96843124	     -0.36950851	      5.23937789	     10.27474214	     -3.18648201	      0.00000000	    -12.29358540	      6.64647625	      1.54479907	      5.46189878	     -2.09879895	     -9.91194241	     23.01175543	    114.28895533	      4.16411576	     -4.53936060	     -2.98840081	     19.37148092	    102.40318912
      0.15000000	     -4.81579012	     -4.74775863	    -66.04211702	      0.14654060	      1.01032306	     -0.11046969	     -8.04228631	     -2.62792799	      7.80966493	     10.16778140	     12.66596094	      0.82988579	      0.00000000	     -8.99793653	     -6.96418491	     -0.42357296	      5.05188506	     10.36780404	     -3.21467292	      0.00000000	    -12.33357821	      6.61525518	      1.47865072	      5.45813079	     -2.04955073	     -9.84648330	     22.97587369	    114.29852884	      4.39109209	     -4.46796218	     -2.91866150	     19.52051588	    102.44649188
      0.16666670	     -4.79644277	     -4.74771821	    -66.04913074	      0.14643022	      1.01013662	     -0.10973850	     -8.06640465	     -2.61238085	      7.81276722	     10.14757325	     12.67584589	      0.82726451	      0.00000000	     -9.03623542	     -6.99058129	     -0.41527109	      5.03210791	     10.37612615	     -3.20560267	      0.00000000	    -12.28801936	      6.56542517	      1.45346334	      5.48051897	     -2.04914016	     -9.83195607	     22.97596028	    114.30103036	      4.45998924	     -4.41230775	     -2.89286625	     19.56803272	    102.45853298
      0.18333330	     -4.27072889	     -5.32178380	    -65.55571142	      0.14694596	      1.01098000	     -0.10851152	     -9.65590013	     -2.80163001	      7.89333110	      9.02753717	     12.41373917	      0.41892439	      0.00000000	    -10.44852772	     -6.81431715	     -0.04180787	      3.90952693	      9.99548130	     -2.54356659	      0.00000000	    -12.93174975	      6.29200710	      0.99900008	      5.57297833	     -2.12959335	     -8.27888754	     22.50236087	    114.54003277	      4.37265215	     -4.76953590	     -0.99872216	     20.22307092	    103.65536392
